<svg width="36" height="36" viewBox="0 0 36 36" fill="none" xmlns="http://www.w3.org/2000/svg">
<circle cx="18.0144" cy="17.8029" r="17.3029" stroke="black"/>
<path d="M19.5579 26.9971H15.8303C15.6471 26.9181 15.5975 26.7708 15.5978 26.5821C15.6001 23.7962 15.5994 21.01 15.5994 18.2241C15.5994 18.17 15.5994 18.1156 15.5994 18.0515H15.4548C14.8217 18.0515 14.1886 18.0515 13.5555 18.0515C13.3089 18.0515 13.2016 17.9452 13.2014 17.6952C13.2007 16.6788 13.2007 15.6626 13.2014 14.6461C13.2014 14.4122 13.319 14.2975 13.5551 14.2975C14.2279 14.2972 14.901 14.2975 15.5738 14.2975C15.616 14.2975 15.6581 14.2975 15.7043 14.2975C15.7065 14.2582 15.7089 14.235 15.7089 14.2118C15.7089 13.4903 15.7089 12.7689 15.7089 12.0474C15.7089 12.0235 15.7103 11.9991 15.7057 11.9758C15.6313 11.5894 15.6648 11.206 15.7484 10.8265C15.9188 10.0543 16.3355 9.42865 16.9326 8.9263C17.7788 8.21467 18.7747 7.88831 19.8687 7.867C20.7484 7.85 21.6286 7.86341 22.5086 7.86365C22.7336 7.86365 22.8553 7.98289 22.8555 8.20844C22.8565 9.15712 22.8565 10.1056 22.8555 11.0542C22.8555 11.2858 22.7344 11.4021 22.499 11.4024C21.9813 11.4026 21.4636 11.4009 20.946 11.4036C20.791 11.4043 20.6344 11.4053 20.4814 11.4266C20.1936 11.4665 19.9556 11.5949 19.8488 11.8837C19.8055 12.001 19.7777 12.131 19.7763 12.2555C19.7693 12.9051 19.7729 13.5547 19.7734 14.2046C19.7734 14.2345 19.7794 14.2644 19.783 14.2977C19.8407 14.2977 19.8883 14.2977 19.936 14.2977C20.7841 14.2977 21.6322 14.2977 22.4805 14.2977C22.7552 14.2977 22.8797 14.4354 22.8507 14.7115C22.828 14.9291 22.8014 15.1466 22.776 15.364C22.6831 16.1584 22.589 16.9527 22.4978 17.7474C22.4693 17.9959 22.3608 18.0977 22.1087 18.0979C21.376 18.0982 20.6433 18.0979 19.9106 18.0979C19.8682 18.0979 19.8258 18.0979 19.7729 18.0979C19.7729 18.1628 19.7729 18.2136 19.7729 18.2646C19.7729 21.0385 19.7715 23.8127 19.776 26.5867C19.7763 26.7737 19.7246 26.9104 19.5577 26.9976L19.5579 26.9971Z" fill="black"/>
</svg>
