<svg width="37" height="36" viewBox="0 0 37 36" fill="none" xmlns="http://www.w3.org/2000/svg">
<circle cx="18.4087" cy="17.8029" r="17.3029" stroke="black"/>
<g clip-path="url(#clip0_1684_529)">
<path d="M19.464 25.9697H15.8928V14.4565H19.3204V16.0069C19.3404 16.0218 19.3608 16.0364 19.3808 16.0513C19.3889 16.0211 19.3908 15.9873 19.4061 15.9613C19.9468 15.0484 20.7577 14.5004 21.7773 14.2741C22.8037 14.0463 23.8223 14.1259 24.8022 14.5127C25.7235 14.8764 26.3003 15.5763 26.6349 16.4927C26.9038 17.2291 27.0056 17.9961 27.0337 18.7724C27.059 19.4716 27.0557 20.1722 27.0569 20.8722C27.0597 22.5166 27.0578 24.1611 27.0578 25.8053C27.0578 25.9179 26.9999 25.9742 26.8839 25.9742C25.806 25.9742 24.728 25.9742 23.6501 25.9742C23.5337 25.9742 23.4755 25.9142 23.4755 25.7942C23.4755 23.9177 23.476 22.0412 23.475 20.1647C23.4748 19.6569 23.4634 19.1493 23.3358 18.6537C23.2276 18.2326 23.0454 17.8546 22.6742 17.5979C22.3463 17.3711 21.9715 17.3115 21.5845 17.3141C21.1577 17.3172 20.7452 17.3886 20.3815 17.6312C19.9546 17.9162 19.7365 18.339 19.6122 18.821C19.5025 19.2466 19.4654 19.6817 19.4647 20.1188C19.4619 22.0112 19.4635 23.9033 19.4635 25.7956V25.9697H19.464Z" fill="black"/>
<path d="M13.6321 25.9748C13.5827 25.9748 13.5402 25.9748 13.4977 25.9748C12.3999 25.9748 11.3021 25.9731 10.2043 25.9771C10.0904 25.9776 10.05 25.9561 10.0502 25.8299C10.054 22.0842 10.0533 18.3386 10.0533 14.5929V14.4565H13.6324V25.9748H13.6321Z" fill="black"/>
<path d="M11.8496 12.8672C10.6998 12.8665 9.76599 11.9322 9.77095 10.7875C9.77592 9.64545 10.7038 8.72008 11.8486 8.71535C13.0005 8.71062 13.9299 9.65301 13.9258 10.8215C13.9221 11.9428 12.9833 12.8677 11.8498 12.867L11.8496 12.8672Z" fill="black"/>
</g>
<defs>
<clipPath id="clip0_1684_529">
<rect width="19.0692" height="17.2367" fill="white" transform="translate(8.87408 8.71533)"/>
</clipPath>
</defs>
</svg>
